# xmcd CD database file
#
# Track frame offsets:
#	150
#	16285
#	37875
#	53930
#	71665
#	89215
#	110085
#	127655
#	148810
#	166240
#	188025
#	203430
#	220840
#	237970
#	254760
#	274920
#	294070
#	313175
#
# Disc length: 4392 seconds
#
# Revision: 5
# Processed by: cddbd v1.5.2PL0 Copyright (c) Steve Scherf et al.
# Submitted via: CDex 1.70beta2
#
DISCID=0d112612
DTITLE=Backstreet Boys - Backstreet Boys Greatest Hits- Chapter One ～SPECIAL EDITION～
DYEAR=2004
DGENRE=Pop
TTITLE0=I Want It That Way
TTITLE1=Everybody (Backstreet's Back)
TTITLE2=As Long As You Love Me
TTITLE3=Show Me The Meaning Of Being Lonely
TTITLE4=Quit Playing Games (With My Heart)
TTITLE5=All I Have To Give
TTITLE6=Larger Than Life
TTITLE7=Anywhere For You
TTITLE8=Get Down (You're The One For Me)
TTITLE9=I'll Never Break Your Heart
TTITLE10=The Call
TTITLE11=Shape Of My Heart
TTITLE12=The One
TTITLE13=More Than That
TTITLE14=Drowning
TTITLE15=The Perfect Fan
TTITLE16=If You Knew What I Knew
TTITLE17=My Heart Stays With You
EXTD=YEAR: 2004
EXTT0=
EXTT1=
EXTT2=
EXTT3=
EXTT4=
EXTT5=
EXTT6=
EXTT7=
EXTT8=
EXTT9=
EXTT10=
EXTT11=
EXTT12=
EXTT13=
EXTT14=
EXTT15=
EXTT16=
EXTT17=
PLAYORDER=
